<svg id="Layer_5" enable-background="new 0 0 64 64" height="512" viewBox="0 0 64 64" width="512" xmlns="http://www.w3.org/2000/svg"><g><path d="m32 10.184c-17.383 0-31 6.149-31 14v16c0 6.911 10.904 12.721 25.927 13.813l1.073.078v-12.936l16.772 12.114.432-.091c10.811-2.256 17.796-7.35 17.796-12.978v-16c0-7.851-13.617-14-31-14zm0 2c15.72 0 29 5.495 29 12 0 4.504-6.336 8.868-15.803 10.93l-19.197-12.799v13.783c-12.981-1.163-23-6.306-23-11.914 0-6.505 13.28-12 29-12zm-29 28v-10.927c3.699 4.508 12.228 7.921 23 8.847v13.812c-13.186-1.179-23-6.144-23-11.732zm25-14.132 16 10.667v13.509l-16-11.556zm33 14.132c0 4.375-5.981 8.616-15 10.745v-13.95c6.992-1.579 12.298-4.357 15-7.69z"/><path d="m42 22.184v-2c-1.221 0-2-.592-2-1s.779-1 2-1 2 .592 2 1h2c0-1.683-1.757-3-4-3s-4 1.317-4 3 1.757 3 4 3z"/><path d="m19 22.184c2.243 0 4-1.317 4-3s-1.757-3-4-3v2c1.221 0 2 .592 2 1s-.779 1-2 1-2-.592-2-1h-2c0 1.682 1.757 3 4 3z"/><path d="m31 20.184c2.243 0 4-1.317 4-3s-1.757-3-4-3-4 1.317-4 3 1.757 3 4 3zm0-4c1.221 0 2 .592 2 1s-.779 1-2 1-2-.592-2-1 .779-1 2-1z"/><path d="m44 29.184c0 1.683 1.757 3 4 3s4-1.317 4-3-1.757-3-4-3-4 1.317-4 3zm4-1c1.221 0 2 .592 2 1s-.779 1-2 1-2-.592-2-1 .779-1 2-1z"/><path d="m53 25.184c2.243 0 4-1.317 4-3s-1.757-3-4-3-4 1.317-4 3 1.757 3 4 3zm0-4c1.221 0 2 .592 2 1s-.779 1-2 1-2-.592-2-1 .779-1 2-1z"/><path d="m16 30.184c0 1.683 1.757 3 4 3s4-1.317 4-3-1.757-3-4-3-4 1.317-4 3zm6 0c0 .408-.779 1-2 1s-2-.592-2-1 .779-1 2-1 2 .591 2 1z"/><path d="m9 27.184c2.243 0 4-1.317 4-3s-1.757-3-4-3-4 1.317-4 3 1.757 3 4 3zm0-4c1.221 0 2 .592 2 1s-.779 1-2 1-2-.592-2-1 .779-1 2-1z"/><path d="m9 36.184c-2.243 0-4 1.317-4 3s1.757 3 4 3 4-1.317 4-3-1.757-3-4-3zm0 4c-1.221 0-2-.592-2-1s.779-1 2-1 2 .592 2 1-.779 1-2 1z"/><path d="m20 43.184c-2.243 0-4 1.317-4 3s1.757 3 4 3 4-1.317 4-3-1.757-3-4-3zm0 4c-1.221 0-2-.592-2-1s.779-1 2-1 2 .592 2 1-.779 1-2 1z"/><path d="m36 34.184v2c1.221 0 2 .592 2 1s-.779 1-2 1-2-.592-2-1h-2c0 1.683 1.757 3 4 3s4-1.317 4-3-1.757-3-4-3z"/><path d="m55 38.184c-2.243 0-4 1.317-4 3s1.757 3 4 3v-2c-1.221 0-2-.592-2-1s.779-1 2-1 2 .592 2 1h2c0-1.683-1.757-3-4-3z"/></g></svg>