<?xml version="1.0" standalone="no"?>
<!DOCTYPE svg PUBLIC "-//W3C//DTD SVG 20010904//EN"
 "http://www.w3.org/TR/2001/REC-SVG-20010904/DTD/svg10.dtd">
<svg version="1.0" xmlns="http://www.w3.org/2000/svg"
 width="1000.000000pt" height="720.000000pt" viewBox="0 0 1000.000000 720.000000"
 preserveAspectRatio="xMidYMid meet">
<metadata>
Created by potrace 1.16, written by Peter Selinger 2001-2019
</metadata>
<g transform="translate(0.000000,720.000000) scale(0.100000,-0.100000)"
fill="#000000" stroke="none">
<path d="M5622 6635 c-58 -25 -101 -66 -126 -118 -35 -74 -41 -126 -22 -192
21 -71 63 -113 160 -158 81 -39 96 -56 96 -112 0 -29 -9 -45 -46 -85 -27 -29
-64 -56 -90 -66 -43 -16 -46 -16 -72 3 -15 10 -34 33 -42 51 -15 32 -50 44
-50 18 0 -49 43 -107 102 -137 50 -25 158 -26 213 0 110 50 166 191 110 277
-24 36 -54 52 -134 69 -89 19 -134 44 -152 87 -29 71 -2 147 81 221 56 51 97
65 140 47 43 -18 58 -62 38 -117 -14 -40 -14 -45 -1 -50 21 -8 40 19 52 77 17
78 -17 152 -83 184 -42 20 -129 20 -174 1z"/>
<path d="M4498 6611 c-53 -3 -100 -9 -103 -13 -13 -13 4 -38 26 -38 21 0 21
-2 13 -107 -5 -60 -8 -211 -7 -336 l2 -228 -30 -11 c-50 -17 -28 -33 42 -31
35 1 78 4 95 7 l30 6 -4 115 -5 115 101 0 101 0 3 -97 c2 -54 -1 -104 -6 -110
-4 -7 -6 -20 -2 -28 5 -13 20 -15 78 -13 l73 3 1 85 c1 47 6 200 12 340 7 140
12 263 12 272 0 9 9 20 20 23 11 3 20 13 20 21 0 11 -19 14 -94 14 -52 0 -101
-3 -110 -6 -23 -9 -20 -34 4 -34 18 0 20 -7 20 -78 0 -44 -3 -140 -7 -215 l-6
-137 -104 0 -103 0 0 224 0 225 23 3 c22 3 32 30 12 33 -5 1 -54 -1 -107 -4z"/>
<path d="M3885 6601 c-53 -11 -27 -26 50 -29 l75 -3 -5 -212 c-3 -117 -7 -274
-10 -350 -3 -85 -1 -146 5 -158 9 -16 22 -19 81 -19 l71 0 -5 33 c-5 33 7 441
18 605 l7 92 73 0 c76 0 96 10 75 35 -10 12 -48 15 -209 14 -108 -1 -209 -4
-226 -8z"/>
<path d="M5087 6593 c-30 -8 -13 -28 28 -31 l38 -3 -6 -241 c-4 -133 -7 -286
-7 -340 0 -98 0 -98 -25 -98 -18 0 -25 -5 -25 -19 0 -18 9 -19 120 -20 113 0
120 1 120 19 0 15 -7 20 -25 20 -25 0 -25 1 -25 88 1 150 19 557 26 575 4 10
17 17 33 17 26 0 51 16 51 32 0 8 -271 9 -303 1z"/>
<path d="M3477 6369 c-139 -33 -256 -161 -350 -386 -132 -313 -202 -699 -229
-1251 l-12 -244 -110 -90 c-292 -239 -522 -395 -675 -459 -140 -58 -197 -71
-321 -73 -100 -1 -121 2 -164 22 -62 28 -102 29 -111 2 -17 -54 74 -111 209
-131 139 -21 297 12 481 101 162 78 278 161 578 412 100 85 117 96 117 76 1
-88 23 -383 36 -478 17 -130 35 -175 75 -195 89 -47 152 25 129 146 -12 61
-40 344 -40 398 l0 36 57 -64 c86 -96 246 -235 312 -270 97 -51 171 -38 154
28 -3 12 -33 40 -67 63 -110 74 -394 386 -370 407 5 4 41 29 79 56 226 157
315 242 315 303 0 64 -40 69 -106 11 -26 -22 -70 -58 -98 -78 -74 -55 -293
-187 -277 -168 7 10 43 47 78 84 275 286 524 792 608 1233 26 135 31 304 11
372 -33 114 -163 172 -309 137z m185 -90 c60 -32 81 -188 48 -349 -78 -379
-325 -898 -556 -1165 l-69 -79 -3 94 c-7 205 34 617 88 880 75 366 190 562
363 616 52 16 102 17 129 3z"/>
<path d="M6125 5946 c-107 -34 -199 -115 -253 -222 -61 -121 -110 -309 -133
-509 -12 -113 -16 -430 -5 -550 l7 -80 -54 -75 c-29 -41 -91 -129 -138 -194
-149 -211 -211 -264 -230 -196 -38 138 56 700 148 885 49 97 68 104 125 48 34
-33 40 -35 63 -25 50 23 19 108 -51 143 -81 39 -174 3 -245 -94 -82 -112 -170
-333 -208 -523 -28 -136 -156 -420 -265 -589 -51 -79 -146 -185 -164 -185 -15
0 -42 124 -54 248 -20 202 13 489 92 796 43 170 125 426 143 449 7 8 111 39
242 71 127 32 247 62 268 67 47 12 70 51 45 75 -32 32 -94 27 -303 -25 -110
-27 -202 -48 -204 -45 -2 2 33 78 78 169 45 91 79 170 75 176 -13 21 -55 29
-95 19 -50 -14 -83 -63 -182 -270 -39 -80 -71 -146 -72 -148 -2 -2 -83 -18
-181 -37 -196 -37 -444 -70 -628 -83 -132 -10 -150 -19 -144 -77 3 -27 7 -30
43 -33 98 -9 526 36 745 78 58 11 108 20 111 20 4 0 -11 -51 -33 -112 -76
-218 -145 -482 -183 -702 -13 -76 -222 -257 -266 -231 -8 6 -10 39 -5 119 3
61 9 191 12 288 6 168 6 178 -14 210 -39 62 -124 79 -161 33 -17 -22 -20 -41
-20 -137 0 -61 -5 -165 -12 -232 -18 -189 -1 -301 53 -353 64 -61 214 -25 333
80 l50 44 0 -151 c1 -124 5 -167 24 -241 39 -153 102 -245 166 -245 103 1 270
191 408 463 l54 108 7 -56 c9 -75 32 -130 69 -161 42 -35 97 -29 162 17 51 36
181 188 310 362 l80 107 23 -116 c27 -139 44 -178 83 -194 74 -31 122 5 273
200 92 119 145 180 157 180 23 0 13 -46 -35 -159 -74 -173 -120 -323 -145
-471 -50 -293 -36 -373 66 -387 61 -8 91 24 154 169 111 252 327 668 348 668
4 0 12 -26 18 -57 25 -130 96 -258 163 -295 28 -16 50 -19 110 -15 144 7 259
87 405 281 61 81 81 102 86 88 3 -9 9 -64 13 -122 7 -115 25 -166 67 -189 31
-17 74 -8 89 19 6 11 17 57 25 103 28 160 125 396 205 497 26 33 89 75 98 65
2 -1 -8 -56 -22 -121 -66 -313 -82 -571 -51 -807 19 -145 44 -228 93 -303 92
-142 220 -207 432 -220 114 -8 230 11 370 57 109 36 282 112 324 142 30 21 56
72 56 109 0 40 -40 79 -87 85 -37 5 -59 -2 -180 -60 -206 -98 -305 -129 -434
-135 -129 -5 -186 10 -252 69 -152 133 -197 420 -142 904 19 169 19 335 1 379
-23 56 -101 65 -167 21 -49 -32 -134 -145 -193 -255 l-46 -85 0 65 c0 110 -16
182 -45 208 -50 43 -116 21 -135 -46 -5 -20 -10 -74 -10 -119 l0 -82 -88 -108
c-165 -201 -283 -293 -378 -293 -46 0 -69 19 -102 85 -26 52 -52 177 -52 250
l0 55 108 107 c134 133 182 217 182 317 0 69 -14 97 -60 121 -42 22 -89 18
-148 -11 -120 -60 -216 -231 -241 -432 -8 -66 -17 -86 -82 -195 -124 -207
-224 -391 -274 -506 -27 -61 -50 -110 -51 -108 -10 10 56 264 144 550 69 222
68 273 -3 303 -99 41 -191 -10 -356 -198 -38 -43 -72 -79 -76 -81 -7 -2 -41
174 -42 219 -1 11 72 133 162 270 270 412 325 510 379 667 43 124 46 239 8
307 -28 49 -99 103 -158 120 -50 13 -148 12 -197 -4z m171 -155 c18 -11 44
-35 59 -55 26 -34 27 -41 23 -114 -9 -140 -81 -280 -419 -806 l-57 -89 -7 119
c-10 156 -1 387 20 494 44 232 128 390 237 444 62 31 102 33 144 7z m728 -897
c0 -28 -12 -59 -38 -102 -36 -60 -135 -177 -142 -169 -6 6 44 173 68 229 23
55 62 90 92 86 17 -2 21 -10 20 -44z"/>
<path d="M2370 3760 c-122 -26 -247 -126 -309 -248 -82 -163 -146 -513 -158
-863 l-6 -177 -56 -4 c-31 -2 -77 -14 -102 -26 -101 -49 -225 -191 -266 -305
-20 -55 -87 -123 -224 -228 -185 -140 -336 -218 -466 -240 -85 -14 -145 -6
-210 26 -52 27 -112 32 -131 13 -19 -19 -14 -53 10 -75 79 -72 228 -93 374
-54 147 40 358 160 522 296 l67 56 6 -78 c8 -117 45 -170 133 -194 90 -24 178
12 282 116 l71 71 11 -86 c33 -240 117 -411 227 -461 56 -26 145 -25 197 2 85
43 220 198 343 392 50 80 65 84 65 21 0 -43 40 -115 80 -142 43 -29 125 -30
179 -2 50 25 112 95 168 190 l44 75 -8 -55 c-12 -86 -9 -388 6 -455 52 -248
145 -424 286 -545 217 -187 590 -144 852 96 51 47 60 78 22 82 -25 3 -54 -14
-165 -101 -27 -20 -87 -56 -133 -80 l-84 -42 -117 0 c-114 0 -117 1 -192 38
-116 57 -187 150 -247 324 -73 215 -71 563 6 887 35 149 20 216 -48 216 -23 0
-39 -15 -101 -99 -40 -54 -116 -166 -170 -249 -53 -83 -105 -155 -117 -161
-16 -9 -24 -7 -41 11 -20 22 -22 31 -17 138 3 63 12 141 21 174 40 145 122
301 188 361 96 88 205 56 226 -66 9 -52 34 -71 59 -46 27 27 25 169 -2 216
-35 60 -67 76 -148 76 -58 0 -83 -5 -128 -28 -123 -60 -249 -209 -338 -400
-54 -113 -167 -307 -274 -467 -180 -269 -304 -325 -381 -173 -37 73 -72 285
-91 545 -6 85 -5 87 23 120 95 111 256 366 355 564 186 371 264 718 207 916
-13 45 -52 93 -92 114 -37 19 -148 26 -208 14z m189 -96 c59 -49 76 -181 45
-344 -45 -239 -179 -518 -429 -893 l-92 -138 -6 53 c-18 150 -3 470 34 697 38
240 85 393 150 490 49 73 105 119 173 143 69 24 89 22 125 -8z m-686 -1312
c12 -13 16 -45 18 -147 l3 -131 -44 -78 c-73 -133 -181 -265 -217 -266 -24 0
-43 44 -43 100 1 183 108 449 209 517 41 28 53 28 74 5z"/>
<path d="M3816 3505 c-100 -35 -170 -139 -169 -249 1 -106 52 -174 173 -227
68 -30 90 -55 90 -102 0 -28 -8 -51 -26 -75 -34 -44 -110 -92 -147 -92 -34 0
-87 48 -87 79 0 24 -28 29 -36 6 -4 -8 4 -36 17 -62 61 -122 260 -137 365 -29
87 91 82 231 -9 271 -18 7 -63 21 -101 29 -38 9 -80 23 -93 31 -30 20 -55 70
-55 110 0 67 70 166 145 203 54 27 88 22 118 -17 21 -26 21 -32 3 -118 -7 -38
4 -42 32 -12 15 17 19 36 19 93 0 65 -3 77 -29 110 -48 63 -125 82 -210 51z"/>
<path d="M5140 3501 c-85 -27 -137 -80 -188 -190 -50 -109 -67 -204 -53 -299
18 -119 81 -231 152 -268 55 -28 136 -43 174 -33 45 13 99 59 130 113 106 182
78 566 -47 659 -30 23 -124 33 -168 18z m150 -68 c71 -64 108 -272 76 -425
-35 -172 -99 -221 -185 -143 -75 68 -124 247 -102 370 20 109 59 173 126 208
41 22 50 21 85 -10z"/>
<path d="M5560 3493 c-81 -12 -90 -15 -90 -28 0 -10 11 -15 31 -15 l31 0 -8
-182 c-4 -101 -8 -258 -8 -350 l-1 -167 -25 -3 c-14 -2 -25 -9 -25 -18 0 -12
15 -14 90 -11 50 2 93 5 98 8 4 2 7 60 7 129 l0 124 25 -16 c14 -9 64 -67 110
-130 84 -111 116 -137 139 -114 8 8 4 18 -19 39 -17 15 -42 42 -55 61 -13 19
-50 70 -82 113 -32 42 -52 77 -45 77 6 0 39 13 72 29 105 50 172 136 182 235
10 100 -60 177 -192 211 -54 14 -172 18 -235 8z m241 -49 c75 -21 134 -71 143
-119 12 -61 -17 -136 -69 -184 -50 -46 -142 -91 -188 -91 l-30 0 6 135 c4 74
10 166 13 205 7 70 7 70 37 70 17 0 57 -7 88 -16z"/>
<path d="M4421 3471 c-46 -8 -51 -29 -9 -33 32 -3 33 -4 40 -63 4 -33 3 -157
-3 -275 -5 -118 -9 -247 -9 -287 0 -66 -2 -72 -22 -75 -12 -2 -23 -9 -26 -16
-3 -10 22 -12 114 -10 104 3 119 5 122 21 2 12 -3 17 -18 17 -18 0 -21 4 -16
23 3 12 9 99 12 194 4 94 10 177 14 184 4 6 40 14 79 17 61 4 71 7 71 23 0 17
-6 18 -62 13 -35 -3 -69 -7 -75 -10 -10 -2 -13 26 -13 121 l0 124 118 3 c96 2
117 6 117 18 0 13 -30 15 -200 16 -110 1 -215 -1 -234 -5z"/>
<path d="M3293 3463 c-59 -6 -60 -33 -1 -33 l41 0 -6 -127 c-4 -71 -7 -224 -7
-340 l0 -213 -25 0 c-18 0 -25 -5 -25 -20 0 -19 7 -20 120 -20 113 0 120 1
120 20 0 15 -7 20 -26 20 l-27 0 8 288 c4 158 10 310 14 337 6 46 8 50 36 53
34 4 57 20 49 33 -5 9 -183 10 -271 2z"/>
<path d="M7434 2641 c-172 -44 -376 -300 -446 -560 -18 -70 -29 -90 -86 -158
-196 -234 -291 -364 -361 -494 l-39 -71 -7 84 c-13 160 6 260 122 628 88 280
96 406 28 470 -37 35 -116 39 -183 10 -96 -41 -201 -183 -248 -334 -16 -50
-20 -55 -25 -35 -4 13 -8 62 -9 109 -3 181 -23 230 -92 230 -81 0 -93 -38 -93
-290 l0 -196 -95 -148 c-140 -219 -247 -326 -324 -326 -32 0 -67 51 -93 135
-25 85 -23 284 6 425 27 136 27 161 -4 194 -57 61 -147 14 -179 -95 -9 -29
-22 -87 -28 -127 -11 -70 -15 -77 -88 -165 -183 -220 -385 -373 -457 -346 -46
17 -73 116 -73 270 0 164 37 284 96 311 38 18 57 0 70 -65 17 -87 48 -111 80
-62 35 54 7 197 -45 225 -46 24 -132 3 -190 -46 -46 -40 -92 -109 -121 -184
-12 -30 -48 -86 -79 -125 -201 -243 -294 -373 -354 -489 l-35 -69 -7 79 c-9
93 6 247 34 354 11 41 47 161 81 265 33 105 65 216 71 248 22 110 -2 231 -51
257 -36 19 -133 14 -179 -10 -53 -26 -112 -85 -157 -155 -37 -58 -94 -191 -95
-222 0 -16 -1 -16 -9 2 -5 11 -9 58 -10 105 -3 148 -13 200 -44 226 -34 30
-68 30 -101 2 -42 -37 -50 -121 -36 -395 6 -128 16 -256 21 -284 17 -89 68
-122 122 -79 32 25 39 42 89 235 41 162 103 315 155 383 48 62 122 92 142 56
13 -23 2 -66 -73 -294 -112 -343 -141 -495 -133 -704 3 -95 8 -118 29 -155 44
-80 146 -107 207 -56 18 15 63 89 111 183 57 109 108 192 169 271 l87 113 8
-64 c28 -220 74 -288 194 -288 112 0 320 149 505 363 l58 68 0 -33 c0 -55 27
-165 56 -228 59 -131 163 -170 291 -109 69 32 253 221 328 337 l60 93 8 -63
c13 -102 56 -145 114 -115 38 20 53 57 103 252 75 290 182 461 277 443 35 -6
26 -60 -47 -282 -38 -118 -85 -273 -102 -343 -30 -120 -32 -139 -33 -313 0
-172 2 -188 22 -226 25 -46 87 -84 139 -84 60 0 87 30 159 172 84 165 115 213
225 355 l88 112 6 -40 c23 -141 139 -199 268 -134 112 56 272 209 339 324 l34
58 59 -106 c58 -104 106 -204 106 -219 0 -5 -26 -16 -57 -26 -316 -98 -615
-378 -723 -675 -91 -250 -48 -467 116 -589 212 -157 567 -85 741 151 139 190
200 417 190 712 -4 104 -12 178 -27 240 -12 50 -24 100 -27 113 -5 21 -3 22
72 22 42 0 105 -7 139 -16 82 -21 213 -90 322 -169 99 -73 136 -82 142 -33 4
37 -41 85 -140 149 -148 94 -282 137 -459 146 l-115 6 -23 66 c-12 36 -53 130
-91 208 -100 209 -161 293 -211 293 -34 0 -66 -31 -75 -74 -31 -142 -187 -366
-302 -433 l-44 -26 -21 22 c-20 19 -22 32 -21 124 0 132 28 237 99 383 41 82
68 124 104 157 58 54 117 75 158 55 34 -16 73 -73 73 -105 0 -61 51 -87 71
-35 6 15 9 62 7 104 -3 81 -17 112 -69 150 -28 21 -117 32 -165 19z m400
-1093 c42 -137 58 -227 63 -353 14 -338 -114 -608 -341 -721 -72 -35 -86 -39
-155 -38 -143 1 -253 68 -306 186 -36 80 -45 209 -21 310 66 281 340 567 646
674 36 13 70 23 77 23 7 1 24 -36 37 -81z"/>
</g>
</svg>
