<svg id="Capa_1" enable-background="new 0 0 511.999 511.999" height="512" viewBox="0 0 511.999 511.999" width="512" xmlns="http://www.w3.org/2000/svg"><g><path d="m256 0c-141.493 0-256 114.497-256 256 0 141.491 114.497 256 255.999 256 141.491 0 255.999-114.497 255.999-256 .001-141.492-114.497-256-255.998-256zm0 496.999c-133.202 0-241-107.788-241-240.999 0-133.201 107.787-241 241-241 133.2 0 240.999 107.787 240.999 241 0 133.201-107.788 240.999-240.999 240.999z"/><path d="m175.2 178.473h13.126c4.143 0 7.5-3.358 7.5-7.5s-3.357-7.5-7.5-7.5h-13.126c-4.143 0-7.5 3.358-7.5 7.5s3.357 7.5 7.5 7.5z"/><path d="m175.2 211.59h17.809c4.143 0 7.5-3.358 7.5-7.5s-3.357-7.5-7.5-7.5h-17.809c-4.143 0-7.5 3.358-7.5 7.5s3.357 7.5 7.5 7.5z"/><path d="m175.2 244.706h35.618c4.143 0 7.5-3.358 7.5-7.5s-3.357-7.5-7.5-7.5h-35.618c-4.143 0-7.5 3.358-7.5 7.5s3.357 7.5 7.5 7.5z"/><path d="m175.2 277.823h71.236c4.143 0 7.5-3.358 7.5-7.5s-3.357-7.5-7.5-7.5h-71.236c-4.143 0-7.5 3.358-7.5 7.5s3.357 7.5 7.5 7.5z"/><path d="m175.2 310.939h103.027c4.143 0 7.5-3.358 7.5-7.5s-3.357-7.5-7.5-7.5h-103.027c-4.143 0-7.5 3.358-7.5 7.5s3.357 7.5 7.5 7.5z"/><path d="m181.762 344.056h96.465c4.143 0 7.5-3.358 7.5-7.5s-3.357-7.5-7.5-7.5h-96.465c-4.143 0-7.5 3.358-7.5 7.5s3.358 7.5 7.5 7.5z"/><path d="m266.738 369.672c0-4.142-3.357-7.5-7.5-7.5h-58.436c-4.143 0-7.5 3.358-7.5 7.5s3.357 7.5 7.5 7.5h58.436c4.142 0 7.5-3.358 7.5-7.5z"/><path d="m256 58.79c-30.996 0-60.648 7-88.163 20.78-25.201 4.422-45.725 20.771-56.382 42.303-33.966 36.583-52.664 84.161-52.664 134.127 0 64.343 31.515 124.768 84.313 161.697 25.849 24.865 61.22 38.296 98.677 34.999 4.731.337 9.511.513 14.219.513 108.741 0 197.209-88.468 197.209-197.209 0-17.442-2.283-34.729-6.785-51.438l3.111-5.475c6.109-10.749 2.355-24.397-8.399-30.506-3.05-1.734-6.391-2.686-9.794-2.875-33.319-64.597-100.154-106.916-175.342-106.916zm30.693 141.589 9.533-16.781c6.402 1.379 4.212.907 15.113 3.256l-11.824 20.811c-1.961 3.453-6.43 4.827-10.054 2.769-3.543-2.013-4.783-6.51-2.768-10.055zm25.865 14.696 14.152-24.909 11.119 2.395-20.45 35.997c-.57 1.003-1.032 2.044-1.437 3.101-3.431-3.117-7.038-6.054-10.81-8.792 3.025-1.929 5.599-4.575 7.426-7.792zm20.631 30.946c-3.536-2.008-4.786-6.501-2.768-10.054l22.778-40.095c7.593 1.635 5.726 1.233 15.113 3.256l-25.069 44.126c-1.961 3.453-6.431 4.827-10.054 2.767zm-41.638-78.774c-3.976-.856-6.516-4.768-5.655-8.762.853-3.967 4.763-6.519 8.762-5.656 17.805 3.836 86.965 18.734 97.992 21.11 4.251.985 6.479 4.98 5.664 8.765-.832 3.865-4.688 6.533-8.762 5.655-20.377-4.39-77.684-16.735-98.001-21.112zm54.716-56.801c3.543 2.013 4.783 6.511 2.769 10.055l-14.526 25.569-3.542-.763-11.572-2.493 16.817-29.6c2.017-3.549 6.519-4.779 10.054-2.768zm46.496 45.643-1.28 2.255-15.113-3.256 3.571-6.285c2.012-3.543 6.508-4.784 10.055-2.769 3.543 2.012 4.782 6.509 2.767 10.055zm19.644 18.26c-1.336-4.161-3.726-7.657-6.897-10.33 1.401-2.467 2.372-4.751 2.898-7.897 2.968 4.524 5.752 9.178 8.317 13.969-1.622 1.206-3.069 2.638-4.318 4.258zm-24.681-44.223c-8.408-.51-16.507 3.662-20.828 11.268l-5.899 10.383-11.119-2.395 12.198-21.471c3.329-5.861 3.832-12.742 1.452-19.019 8.707 6.371 16.789 13.487 24.196 21.234zm-131.726-56.336c29.669 0 58.619 7.154 84.604 20.797-7.496.695-13.849 4.91-17.433 11.219l-19.145 33.698-6.207-1.337c-12.09-2.609-23.982 5.072-26.587 17.16-2.068 9.599 2.321 19.009 10.269 23.826l-7.85 13.817c-.503.885-.918 1.801-1.292 2.729-7.959-11.494-12.565-25.555-12.776-40.372-.284-20.699-8.758-40.56-24.342-55.37-8.927-8.484-19.891-14.934-31.922-18.463 16.937-5.121 34.559-7.704 52.681-7.704zm-182.209 182.21c0-35.754 10.36-70.191 29.61-99.605v.064 168 .001c0 13.166 2.045 27.008 6.264 40.051-22.989-31.02-35.874-68.966-35.874-108.511zm225.68 176.954c29.831-19.199 50.981-50.571 56.769-86.743.655-4.09-2.13-7.937-6.22-8.591-4.093-.659-7.937 2.13-8.591 6.221-4.191 26.189-17.67 50.156-37.952 67.485-72.637 62.062-185.076 9.798-185.076-86.867v-168c0-33.49 26.267-61.578 60.499-63.032 17.38-.697 33.694 5.701 46.008 17.402 11.998 11.403 19.423 27.151 19.677 44.709.431 30.407 16.345 58.442 41.749 72.995 30.198 17.299 50.954 48.133 55.524 82.481.547 4.106 4.314 6.987 8.424 6.445 4.105-.546 6.991-4.318 6.445-8.424-2.24-16.833-7.911-32.916-16.386-47.341 6.648-1.063 12.565-5.083 15.945-11.033l27.397-48.224 2.709.584c3.334.719 6.429.636 9.455-.029l-34.742 61.152c-6.094 10.727-2.325 24.412 8.401 30.506 10.823 6.15 24.462 2.241 30.507-8.401l35.384-62.281c1.868 10.533 2.811 21.249 2.811 32.031 0 85.493-59.188 157.409-138.737 176.955zm137.021-241.278-49.521 87.165c-1.961 3.453-6.43 4.827-10.054 2.769-3.534-2.008-4.778-6.517-2.769-10.055l49.521-87.164c1.87-3.297 6.317-4.891 10.054-2.769 3.544 2.013 4.784 6.51 2.769 10.054z"/><path d="m274.244 249.636c-32.739-18.755-53.422-54.678-53.978-93.733-.243-20.934-17.951-38.163-38.662-38.218h-.105c-21.382 0-38.776 17.394-38.776 38.774v168c0 20.354 6.968 40.302 19.621 56.171 12.49 15.665 29.934 26.7 49.116 31.073 4.045.922 8.059-1.608 8.979-5.646.921-4.039-1.607-8.059-5.646-8.979-33.069-7.538-57.071-38.078-57.071-72.619v-168c0-13.109 10.666-23.774 23.843-23.774 12.63.034 23.551 10.502 23.703 23.414.63 44.348 24.203 85.176 61.521 106.553 22.663 12.983 36.742 37.242 36.742 63.312 0 34.691-24.282 63.889-57.027 71.147-4.044.896-6.596 4.901-5.699 8.945.896 4.043 4.899 6.595 8.945 5.699 39.591-8.775 68.781-44.057 68.781-85.792 0-31.432-16.97-60.678-44.287-76.327z"/></g></svg>